<?xml version="1.0" encoding="UTF-8"?>
<svg width="54px" height="54px" viewBox="0 0 54 54" version="1.1" xmlns="http://www.w3.org/2000/svg" xmlns:xlink="http://www.w3.org/1999/xlink">
    <!-- Generator: Sketch 40.3 (33839) - http://www.bohemiancoding.com/sketch -->
    <title>Group</title>
    <desc>Created with Sketch.</desc>
    <defs></defs>
    <g id="Page-1" stroke="none" stroke-width="1" fill="none" fill-rule="evenodd">
        <g id="iPhone-7" transform="translate(-15.000000, -16.000000)">
            <g id="Group" transform="translate(16.000000, 17.000000)">
                <path d="M41.6146848,46.7062405 C41.8941721,41.0229116 41.7904709,40.676398 42.0004025,37.5059251 C42.0699582,37.2631127 42.1458371,37.0152416 42.2280392,36.7939282 C42.3519747,36.5991724 44.5208463,35.5305447 44.5954606,33.0505696 C44.6460465,31.3824987 44.0883366,30.4163075 42.3001241,29.0884269 C42.1622775,28.6091253 42.1673361,27.7099604 42.196423,27.2635396 C42.4759102,23.0067339 41.3174925,22.9687945 38.594705,21.5599764 C39.0221561,19.9349035 38.66679,18.5336734 37.868797,17.1210614 C34.5048329,11.1708918 36.5447104,9.37382674 34.9790759,4.97790973 C34.9689588,4.90076619 34.7324695,4.32029268 34.5364491,4.08253883 C34.1583193,3.62094225 33.0277238,3.26557611 33.0074895,3.26051752 C32.9139055,3.23395991 32.4864544,3.14037595 32.3903411,3.12393552 C32.37643,3.12140622 30.8626462,3 30.8512643,3 C30.8348239,3 29.9065722,3.03793944 29.7257275,3.05564452 C29.6991699,3.05943846 29.2388379,3.11381833 29.1781348,3.12267087 C29.1477833,3.12772946 28.6735402,3.20613765 28.6052492,3.22004878 C28.5837502,3.22384272 27.8072562,3.40468741 27.7440238,3.42112784 C27.7162015,3.42871573 27.2798979,3.56023914 27.2204595,3.58047351 C27.1939019,3.58932604 26.6336627,3.79799299 26.6260748,3.80052229 C26.5539899,3.82960919 25.701617,4.25453098 25.680118,4.26717746 C25.6206795,4.30132296 25.2602548,4.54160611 25.2476083,4.55045865 C25.1982871,4.58460415 24.4445567,5.3054536 24.4407628,5.31051219 C24.3990294,5.36489206 23.9197278,5.93018979 23.9336389,6.439843 C23.94755,7.02031651 23.9311096,8.46833865 23.9488147,9.01340201 C24.0386047,11.8879473 21.7799431,14.0909644 20.6215254,15.5706027 C18.182019,18.6879604 15.2328595,22.8549761 17.0868337,26.8360886 C17.1639773,27.0675192 17.2550319,27.2964205 17.3599977,27.5240572 C14.3589877,32.1476108 7.60197253,34.3076299 7,40.7459537 C7.11634763,41.0342935 7.51091786,41.04694 8.37973114,41.4364516 C9.43824166,41.7462904 10.6168937,41.8525208 11.8486611,41.8525208 C14.5297152,41.8525208 17.4573757,41.3504555 19.9095284,41.3504555 C22.8928335,41.3504555 25.1755234,42.0953333 25.4512167,45.3973296 C21.0843866,46.5304544 20.6316425,46.5484385 19.9095284,51 C19.43655,53.9112201 42.4771749,48.1643798 41.6146848,46.7062405 Z M24.1587463,35.9074098 C23.9020227,35.6064236 23.6301233,35.3332596 23.3696058,35.0714774 C22.8612172,34.5618242 22.3819156,34.0812579 22.0897819,33.4742268 L21.7331511,32.729349 L20.9730975,33.0543636 C19.299968,33.7701544 13.8493344,37.7841477 13.8493344,37.7841477 L15.2657404,38.426589 C17.3372341,39.3649579 20.0789913,39.5584491 22.7296938,39.745617 C23.3190199,39.7860857 23.9273156,39.8290838 24.5141124,39.8796697 C24.5141124,39.8796697 25.2349618,39.9214031 25.5169784,39.9644011 C27.9286624,40.334943 30.9827877,45.6376128 30.3921971,46.1877347 C30.1139745,46.4469876 29.4588867,45.9702152 29.1503126,45.7223442 C28.9125587,45.5301177 27.2470171,44.0707137 26.7917437,43.7456991 C26.7613922,43.7229355 26.2504743,45.0343756 26.2087409,45.1595758 C26.1720661,40.7927457 22.3136246,40.4854362 19.9095284,40.4841715 C18.6714379,40.4841715 17.362527,40.6043131 15.9777373,40.7307779 C14.6018001,40.8572427 13.1803356,40.9875015 11.8486611,40.9875015 C10.5789543,40.9875015 9.54067816,40.8673599 8.67565881,40.6207535 C8.37087861,40.4879655 8.11921362,40.3943815 7.93078105,40.3260905 C8.44043426,36.9380981 10.9039689,34.8666044 13.5040855,32.6774984 C14.8648469,31.5329918 18.8130785,27.4696773 19.415051,27.1750143 C19.415051,27.1750143 23.5795374,24.7633302 24.4217931,24.4509621 C26.1480378,23.8110502 26.862564,23.0231743 26.8840631,20.95421 C26.9005035,19.5340101 25.432247,18.9585952 25.4701864,17.5902458 C23.8084387,17.5282781 23.3873109,11.9600322 24.997208,13.0236013 C24.9643271,12.4405985 24.993414,10.5398323 25.8672859,9.73804541 C26.5337555,8.90211297 28.7140089,8.67068236 29.6776708,8.62389038 C30.6780075,8.57330445 31.6834028,8.78576534 32.6394768,9.30300644 C33.4147062,9.72413428 33.7359268,10.0365024 34.0748525,10.8269075 C34.2873134,11.317591 33.9762099,12.5114188 34.1140566,13.0223367 C35.8757115,12.1623759 35.4254967,17.1779705 34.1608486,17.5889812 C33.8813613,18.4565298 33.9559756,20.6393126 34.5339198,21.6497664 C34.7185584,22.6640143 34.4542469,23.8414017 33.9736806,24.6621584 C32.581303,27.0245211 30.7033005,28.7001799 28.6975685,30.5781825 C27.9881009,31.2421228 24.9086826,34.2899248 24.1587463,35.9074098 Z M15.6223712,37.6399778 C17.362527,36.4828247 18.9812767,34.8438407 21.3132879,33.8460333 C22.2263639,35.7493288 24.4104112,36.3829175 24.5899913,39.019709 C21.4131951,38.7478096 17.9961158,38.7161934 15.6223712,37.6399778 Z" id="Shape" fill="#979797"></path>
                <ellipse id="Oval-2" stroke="#D8D8D8" stroke-width="2" cx="25.7199993" cy="25.7199993" rx="25.7199993" ry="25.7199993"></ellipse>
            </g>
        </g>
    </g>
</svg>
